name C:\Users\u0101727\Documents\MyRepositories\upper-imu-dc\OpenSim\subject0\MA\MA_Splines\angle_in_n6_dof6_0.mot
datacolumns 7
datarows 54
range 50.01000000 50.54000000
endheader 
time	clav_prot	clav_elev	scapula_abduction	scapula_elevation	scapula_upward_rot	scapula_winging	
         50.01000000	        -33.36984042	         16.86370047	        -30.88730313	          7.08700750	         54.58874201	        -12.40251587	
         50.02000000	        -27.88187210	         16.86370047	        -30.88730313	          7.08700750	         54.58874201	        -12.40251587	
         50.03000000	        -22.39390379	         16.86370047	        -30.88730313	          7.08700750	         54.58874201	        -12.40251587	
         50.04000000	        -16.90593547	         16.86370047	        -30.88730313	          7.08700750	         54.58874201	        -12.40251587	
         50.05000000	        -44.34577705	         -7.65248351	        -22.45226073	          7.08700750	         54.58874201	        -12.40251587	
         50.06000000	        -38.85780873	         -7.65248351	        -22.45226073	          7.08700750	         54.58874201	        -12.40251587	
         50.07000000	        -33.36984042	         -7.65248351	        -22.45226073	          7.08700750	         54.58874201	        -12.40251587	
         50.08000000	        -27.88187210	         -7.65248351	        -22.45226073	          7.08700750	         54.58874201	        -12.40251587	
         50.09000000	        -22.39390379	         -7.65248351	        -22.45226073	          7.08700750	         54.58874201	        -12.40251587	
         50.10000000	        -16.90593547	         -7.65248351	        -22.45226073	          7.08700750	         54.58874201	        -12.40251587	
         50.11000000	        -44.34577705	         -2.74924671	        -22.45226073	          7.08700750	         54.58874201	        -12.40251587	
         50.12000000	        -38.85780873	         -2.74924671	        -22.45226073	          7.08700750	         54.58874201	        -12.40251587	
         50.13000000	        -33.36984042	         -2.74924671	        -22.45226073	          7.08700750	         54.58874201	        -12.40251587	
         50.14000000	        -27.88187210	         -2.74924671	        -22.45226073	          7.08700750	         54.58874201	        -12.40251587	
         50.15000000	        -22.39390379	         -2.74924671	        -22.45226073	          7.08700750	         54.58874201	        -12.40251587	
         50.16000000	        -16.90593547	         -2.74924671	        -22.45226073	          7.08700750	         54.58874201	        -12.40251587	
         50.17000000	        -44.34577705	          2.15399008	        -22.45226073	          7.08700750	         54.58874201	        -12.40251587	
         50.18000000	        -38.85780873	          2.15399008	        -22.45226073	          7.08700750	         54.58874201	        -12.40251587	
         50.19000000	        -33.36984042	          2.15399008	        -22.45226073	          7.08700750	         54.58874201	        -12.40251587	
         50.20000000	        -27.88187210	          2.15399008	        -22.45226073	          7.08700750	         54.58874201	        -12.40251587	
         50.21000000	        -22.39390379	          2.15399008	        -22.45226073	          7.08700750	         54.58874201	        -12.40251587	
         50.22000000	        -16.90593547	          2.15399008	        -22.45226073	          7.08700750	         54.58874201	        -12.40251587	
         50.23000000	        -44.34577705	          7.05722688	        -22.45226073	          7.08700750	         54.58874201	        -12.40251587	
         50.24000000	        -38.85780873	          7.05722688	        -22.45226073	          7.08700750	         54.58874201	        -12.40251587	
         50.25000000	        -33.36984042	          7.05722688	        -22.45226073	          7.08700750	         54.58874201	        -12.40251587	
         50.26000000	        -27.88187210	          7.05722688	        -22.45226073	          7.08700750	         54.58874201	        -12.40251587	
         50.27000000	        -22.39390379	          7.05722688	        -22.45226073	          7.08700750	         54.58874201	        -12.40251587	
         50.28000000	        -16.90593547	          7.05722688	        -22.45226073	          7.08700750	         54.58874201	        -12.40251587	
         50.29000000	        -44.34577705	         11.96046367	        -22.45226073	          7.08700750	         54.58874201	        -12.40251587	
         50.30000000	        -38.85780873	         11.96046367	        -22.45226073	          7.08700750	         54.58874201	        -12.40251587	
         50.31000000	        -33.36984042	         11.96046367	        -22.45226073	          7.08700750	         54.58874201	        -12.40251587	
         50.32000000	        -27.88187210	         11.96046367	        -22.45226073	          7.08700750	         54.58874201	        -12.40251587	
         50.33000000	        -22.39390379	         11.96046367	        -22.45226073	          7.08700750	         54.58874201	        -12.40251587	
         50.34000000	        -16.90593547	         11.96046367	        -22.45226073	          7.08700750	         54.58874201	        -12.40251587	
         50.35000000	        -44.34577705	         16.86370047	        -22.45226073	          7.08700750	         54.58874201	        -12.40251587	
         50.36000000	        -38.85780873	         16.86370047	        -22.45226073	          7.08700750	         54.58874201	        -12.40251587	
         50.37000000	        -33.36984042	         16.86370047	        -22.45226073	          7.08700750	         54.58874201	        -12.40251587	
         50.38000000	        -27.88187210	         16.86370047	        -22.45226073	          7.08700750	         54.58874201	        -12.40251587	
         50.39000000	        -22.39390379	         16.86370047	        -22.45226073	          7.08700750	         54.58874201	        -12.40251587	
         50.40000000	        -16.90593547	         16.86370047	        -22.45226073	          7.08700750	         54.58874201	        -12.40251587	
         50.41000000	        -44.34577705	         -7.65248351	        -14.01721834	          7.08700750	         54.58874201	        -12.40251587	
         50.42000000	        -38.85780873	         -7.65248351	        -14.01721834	          7.08700750	         54.58874201	        -12.40251587	
         50.43000000	        -33.36984042	         -7.65248351	        -14.01721834	          7.08700750	         54.58874201	        -12.40251587	
         50.44000000	        -27.88187210	         -7.65248351	        -14.01721834	          7.08700750	         54.58874201	        -12.40251587	
         50.45000000	        -22.39390379	         -7.65248351	        -14.01721834	          7.08700750	         54.58874201	        -12.40251587	
         50.46000000	        -16.90593547	         -7.65248351	        -14.01721834	          7.08700750	         54.58874201	        -12.40251587	
         50.47000000	        -44.34577705	         -2.74924671	        -14.01721834	          7.08700750	         54.58874201	        -12.40251587	
         50.48000000	        -38.85780873	         -2.74924671	        -14.01721834	          7.08700750	         54.58874201	        -12.40251587	
         50.49000000	        -33.36984042	         -2.74924671	        -14.01721834	          7.08700750	         54.58874201	        -12.40251587	
         50.50000000	        -27.88187210	         -2.74924671	        -14.01721834	          7.08700750	         54.58874201	        -12.40251587	
         50.51000000	        -22.39390379	         -2.74924671	        -14.01721834	          7.08700750	         54.58874201	        -12.40251587	
         50.52000000	        -16.90593547	         -2.74924671	        -14.01721834	          7.08700750	         54.58874201	        -12.40251587	
         50.53000000	        -44.34577705	          2.15399008	        -14.01721834	          7.08700750	         54.58874201	        -12.40251587	
         50.54000000	        -38.85780873	          2.15399008	        -14.01721834	          7.08700750	         54.58874201	        -12.40251587	
